<svg width="24" height="24" viewBox="0 0 24 24" fill="none" xmlns="http://www.w3.org/2000/svg">
<mask id="mask0" mask-type="alpha" maskUnits="userSpaceOnUse" x="6" y="7" width="12" height="12">
<path d="M10.8 7H6V19H18V14.2H14.4H10.8V7Z" fill="#C4C4C4"/>
</mask>
<g mask="url(#mask0)">
<rect x="7" y="8" width="10" height="10" rx="2" stroke="#111111" stroke-width="2"/>
</g>
<rect x="13" y="7" width="5" height="2" fill="#111111"/>
<rect x="18" y="8" width="4" height="2" transform="rotate(90 18 8)" fill="#111111"/>
<path d="M16.1039 8.86137C16.4945 9.2519 16.4945 9.88506 16.1039 10.2756L13.2755 13.104C12.885 13.4945 12.2518 13.4945 11.8613 13.104V13.104C11.4708 12.7135 11.4708 12.0803 11.8613 11.6898L14.6897 8.86137C15.0802 8.47085 15.7134 8.47085 16.1039 8.86137V8.86137Z" fill="#111111"/>
</svg>
